<?xml version="1.0" encoding="UTF-8"?><svg id="uuid-e000c4ff-a402-41d9-85b0-900c83a4ab47" xmlns="http://www.w3.org/2000/svg" viewBox="0 0 57 56"><defs><style>.uuid-b381812b-714c-46ee-aa13-dcb6b81fa6e5,.uuid-be35088a-13a4-4629-afb7-602123cb7b17{stroke-width:0px;}.uuid-be35088a-13a4-4629-afb7-602123cb7b17{fill:#2cd5d9;}</style></defs><g id="uuid-e7f0d195-836f-402f-93b9-1859b2c44b92"><path class="uuid-b381812b-714c-46ee-aa13-dcb6b81fa6e5" d="m47.2,21.8c.2,0,.4,0,.6-.2l6.6-6.6c.3-.3.3-.8,0-1.2l-6.6-6.6c-.2-.2-.4-.2-.6-.2h-15.4V2.8c0-.5-.4-.8-.8-.8h-5c-.5,0-.8.4-.8.8v4.1h-6.1c-1.2,0-2.2,1-2.2,2.2,0,0,0,.2,0,.2v9.9c-.2,1.2.7,2.3,1.9,2.5,0,0,.2,0,.2,0h6.1v1.7h-15.2c-.2,0-.5,0-.6.3l-6.8,7.4c-.3.3-.3.8,0,1.1l6.8,7.5c.2.2.4.3.6.3h15.2v13.2c0,.5.4.8.8.8.5,0,.8-.4.8-.8h0v-13.2h3.3v8.3c0,.5.4.8.8.8.5,0,.8-.4.8-.8h0v-8.3h7.7c1.2,0,2.2-1,2.2-2.3,0,0,0-.1,0-.2v-11.6c.1-1.2-.8-2.3-2-2.5,0,0-.1,0-.2,0h-7.7v-1.7h15.4ZM26.8,3.6h3.3v3.3h-3.3v-3.3Zm-7.8,16.5c-.4,0-.5-.4-.5-.8v-9.9c0-.4,0-.8.5-.8h27.8l5.8,5.8-5.8,5.8h-27.8Zm20.5,5c.4,0,.5.4.5.8v11.6c0,.4,0,.8-.5.8H10.3l-6-6.7,6-6.6h29.2Zm-9.4-1.7h-3.3v-1.7h3.3v1.7Z"/></g><g id="uuid-4ccb3094-5dab-4eb0-88f9-27194446bc98"><path class="uuid-be35088a-13a4-4629-afb7-602123cb7b17" d="m31.6,34.2c1.4,0,2.5-1.1,2.5-2.5s-1.1-2.5-2.5-2.5-2.5,1.1-2.5,2.5c0,1.4,1.1,2.5,2.5,2.5Zm0-3.3c.5,0,.8.4.8.8s-.4.8-.8.8-.8-.4-.8-.8h0c0-.5.4-.8.8-.8h0Z"/></g><g id="uuid-f857bc1e-bfc2-4689-8b9e-0dd91168a8b0"><path class="uuid-be35088a-13a4-4629-afb7-602123cb7b17" d="m24.3,34.2c1.4,0,2.5-1.1,2.5-2.5s-1.1-2.5-2.5-2.5-2.5,1.1-2.5,2.5c0,1.4,1.1,2.5,2.5,2.5Zm0-3.3c.5,0,.8.4.8.8s-.4.8-.8.8-.8-.4-.8-.8h0c0-.5.4-.8.8-.8h0Z"/></g><g id="uuid-a8111f16-ce7c-42d2-ad53-d490548b4829"><path class="uuid-be35088a-13a4-4629-afb7-602123cb7b17" d="m17.1,34.2c1.4,0,2.5-1.1,2.5-2.5s-1.1-2.5-2.5-2.5-2.5,1.1-2.5,2.5c0,1.4,1.1,2.5,2.5,2.5Zm0-3.3c.5,0,.8.4.8.8s-.4.8-.8.8-.8-.4-.8-.8h0c0-.5.4-.8.8-.8h0Z"/></g><g id="uuid-caec4dfd-fc9b-48bc-8c0a-a39cfe07d519"><path class="uuid-be35088a-13a4-4629-afb7-602123cb7b17" d="m30.2,13.5h-3.3c-.5,0-.8.4-.8.8s.4.8.8.8h3.3c.5,0,.8-.4.8-.8s-.4-.8-.8-.8h0Z"/></g><g id="uuid-f25871c6-9f4c-4e70-8323-a8f8a63075b4"><path class="uuid-be35088a-13a4-4629-afb7-602123cb7b17" d="m40.1,13.5h-5c-.5,0-.8.4-.8.8s.4.8.8.8h5c.5,0,.8-.4.8-.8s-.4-.8-.8-.8Z"/></g></svg>