<?xml version="1.0" encoding="UTF-8"?><svg id="uuid-950d030c-3c64-4eff-a240-47b74f13b712" xmlns="http://www.w3.org/2000/svg" viewBox="0 0 57 56"><defs><style>.uuid-1cf5d2a8-f768-4ca2-8a4c-3504751f249d,.uuid-f2e897ec-6100-4df7-8baf-017e9225d4c0{stroke-width:0px;}.uuid-f2e897ec-6100-4df7-8baf-017e9225d4c0{fill:#2cd5d9;}</style></defs><g id="uuid-c6b8798d-2fcd-49f2-9f0c-5d12c3daea17"><path class="uuid-1cf5d2a8-f768-4ca2-8a4c-3504751f249d" d="m28.5,40.1c-.4,0-.8-.3-.8-.8v-13.6c0-.4.3-.8.8-.8s.8.3.8.8v13.6c0,.4-.3.8-.8.8Z"/></g><g id="uuid-bfeb4744-4ff5-45d2-a142-d113567b1e4e"><circle class="uuid-f2e897ec-6100-4df7-8baf-017e9225d4c0" cx="28.7" cy="18" r="2.7"/></g><g id="uuid-3cc22264-c60d-412c-b399-7d661b6d326c"><path class="uuid-1cf5d2a8-f768-4ca2-8a4c-3504751f249d" d="m28.5,51.5c-8.1,0-16-4.2-20.4-11.7-4.2-7.2-4.2-16.2,0-23.5.2-.4.7-.5,1-.3.4.2.5.7.3,1-3.9,6.8-3.9,15.2,0,22,6.1,10.5,19.5,14.1,30,8,10.5-6.1,14.1-19.5,8-30-6.1-10.5-19.5-14.1-30-8-.4.2-.8,0-1-.3-.2-.4,0-.8.3-1,11.2-6.5,25.6-2.6,32.1,8.6,6.5,11.2,2.6,25.6-8.6,32.1-3.7,2.1-7.7,3.1-11.7,3.1Z"/></g></svg>