<?xml version="1.0" encoding="UTF-8"?><svg id="uuid-2f5cc540-a011-424d-9209-bb84719d45c8" xmlns="http://www.w3.org/2000/svg" viewBox="0 0 57 56"><defs><style>.uuid-27010d1b-8eca-4c48-9079-6e922339a568,.uuid-19a38a70-b99a-4891-91f7-b06f8101cf77{stroke-width:0px;}.uuid-19a38a70-b99a-4891-91f7-b06f8101cf77{fill:#2cd5d9;}</style></defs><g id="uuid-d0b55e81-cf90-43e6-a607-df51544d5760"><path class="uuid-27010d1b-8eca-4c48-9079-6e922339a568" d="m49.8,51.9H7.2c-.4,0-.6,0-.8,0-3.1-.2-5.6-2.7-5.8-5.8,0-.2,0-.4,0-.8v-.3c0-1.5.6-2.9,1.6-4l.2-.2,4.6-4.7V15.8c0-5.3,0-8,1.8-9.8s4.5-1.8,9.8-1.8h19.8c5.3,0,8,0,9.8,1.8,1.8,1.8,1.8,4.5,1.8,9.8v20.2l4.6,4.8c0,0,.1.1.2.2,1,1.1,1.6,2.5,1.6,4v.4c0,.4,0,.6,0,.8-.2,3.1-2.7,5.6-5.8,5.8-.2,0-.4,0-.8,0Zm-42.6-1.5h42.6c.4,0,.6,0,.7,0,2.3-.2,4.2-2,4.4-4.4,0-.2,0-.4,0-.7v-.3c0-1.1-.5-2.2-1.2-3l-.2-.2-4.5-4.7H8l-4.7,4.9c-.8.8-1.2,1.9-1.2,3v.3c0,.4,0,.6,0,.7.1,2.3,2,4.2,4.4,4.4.2,0,.4,0,.7,0Zm1.3-14.9h40.1V15.8c0-4.9,0-7.4-1.4-8.7-1.4-1.4-3.8-1.4-8.8-1.4h-19.8c-4.9,0-7.4,0-8.8,1.4s-1.4,3.8-1.4,8.7v19.8Z"/></g><g id="uuid-11960201-3456-492d-8c0e-492cf680a895"><path class="uuid-19a38a70-b99a-4891-91f7-b06f8101cf77" d="m35.3,44.2h-13.6c-.4,0-.8-.3-.8-.8s.3-.8.8-.8h13.6c.4,0,.8.3.8.8s-.3.8-.8.8Z"/></g><g id="uuid-af44b768-172e-4561-93e3-0c7373207733"><path class="uuid-19a38a70-b99a-4891-91f7-b06f8101cf77" d="m30.5,11.5c0,1.1-.9,2-2,2s-2-.9-2-2,.9-2,2-2h0c1.1,0,2,.9,2,2Z"/></g></svg>