<?xml version="1.0" encoding="UTF-8"?><svg id="uuid-5eeb0873-e106-406c-8018-b401517f0b30" xmlns="http://www.w3.org/2000/svg" viewBox="0 0 57 56"><defs><style>.uuid-5402619b-9352-4c13-8f35-76c934cfd04f,.uuid-db19eda5-0b98-4c5c-b271-8bf99b9d30a6{stroke-width:0px;}.uuid-db19eda5-0b98-4c5c-b271-8bf99b9d30a6{fill:#2cd5d9;}</style></defs><g id="uuid-0ca42ee4-7daf-4e05-9adc-d9b12a4d07eb"><path class="uuid-5402619b-9352-4c13-8f35-76c934cfd04f" d="m41.8,21.1c-2.6,0-4.8-2.1-4.8-4.8s2.1-4.8,4.8-4.8,4.8,2.1,4.8,4.8-2.1,4.8-4.8,4.8Zm0-8c-1.8,0-3.2,1.5-3.2,3.2s1.5,3.2,3.2,3.2,3.2-1.5,3.2-3.2-1.5-3.2-3.2-3.2Z"/></g><g id="uuid-4bcf14e9-67c6-4fc1-b354-15b1dd2fb27e"><path class="uuid-5402619b-9352-4c13-8f35-76c934cfd04f" d="m11.8,16.1c-2.6,0-4.8-2.1-4.8-4.8s2.1-4.8,4.8-4.8,4.8,2.1,4.8,4.8-2.1,4.8-4.8,4.8Zm0-8c-1.8,0-3.2,1.5-3.2,3.2s1.5,3.2,3.2,3.2,3.2-1.5,3.2-3.2-1.5-3.2-3.2-3.2Z"/></g><g id="uuid-399a904a-ec4d-4ff9-8299-2d2817604965"><path class="uuid-5402619b-9352-4c13-8f35-76c934cfd04f" d="m14.8,48.1c-2.6,0-4.8-2.1-4.8-4.8s2.1-4.8,4.8-4.8,4.8,2.1,4.8,4.8-2.1,4.8-4.8,4.8Zm0-8c-1.8,0-3.2,1.5-3.2,3.2s1.5,3.2,3.2,3.2,3.2-1.5,3.2-3.2-1.5-3.2-3.2-3.2Z"/></g><g id="uuid-d09c271d-1f9d-4545-9cca-66523de700dd"><path class="uuid-5402619b-9352-4c13-8f35-76c934cfd04f" d="m43.8,44.1c-2.6,0-4.8-2.1-4.8-4.8s2.1-4.8,4.8-4.8,4.8,2.1,4.8,4.8-2.1,4.8-4.8,4.8Zm0-8c-1.8,0-3.2,1.5-3.2,3.2s1.5,3.2,3.2,3.2,3.2-1.5,3.2-3.2-1.5-3.2-3.2-3.2Z"/></g><g id="uuid-ff01843c-fdc6-4091-871c-f620851df114"><rect class="uuid-5402619b-9352-4c13-8f35-76c934cfd04f" x="15.3" y="36.7" width="7.7" height="1.5" transform="translate(-21.9 28.5) rotate(-50.7)"/></g><g id="uuid-2428c4f9-25c3-4e55-ab17-ae2f9e98a9e6"><rect class="uuid-5402619b-9352-4c13-8f35-76c934cfd04f" x="16.6" y="12.5" width="1.5" height="9.7" transform="translate(-7.2 17.4) rotate(-45)"/></g><g id="uuid-767eb4af-135f-42e2-aa4a-8cd712a0ed75"><rect class="uuid-5402619b-9352-4c13-8f35-76c934cfd04f" x="34.3" y="19.8" width="5.2" height="1.5" transform="translate(-4.6 28.5) rotate(-39.9)"/></g><g id="uuid-3a5f201b-92bf-49ec-9f97-70f1192d4a68"><rect class="uuid-5402619b-9352-4c13-8f35-76c934cfd04f" x="36.7" y="31" width="1.5" height="6.8" transform="translate(-12.4 44.7) rotate(-54.2)"/></g><g id="uuid-8d52d829-e21e-4e4c-b699-b684821f4c13"><path class="uuid-db19eda5-0b98-4c5c-b271-8bf99b9d30a6" d="m27.8,37.1c-5.4,0-9.8-4.4-9.8-9.8s4.4-9.8,9.8-9.8,9.8,4.4,9.8,9.8-4.4,9.8-9.8,9.8Zm0-18c-4.5,0-8.2,3.7-8.2,8.2s3.7,8.2,8.2,8.2,8.2-3.7,8.2-8.2-3.7-8.2-8.2-8.2Z"/></g></svg>