<?xml version="1.0" encoding="UTF-8"?><svg id="uuid-fed7d723-4c7c-44f6-9105-653847aac61c" xmlns="http://www.w3.org/2000/svg" viewBox="0 0 28.5 28.5"><defs><style>.uuid-6b9bbd1e-8f84-4e53-bb10-0ff75bd5afb8{stroke-width:0px;}</style></defs><g id="uuid-0ad724e7-9838-4dd1-8a83-c78ce996a3ed"><g id="uuid-3f1111bd-d8c8-4962-ba98-10ec41b286be"><path id="uuid-c6725d7d-86d1-4216-bfdb-57aba0ed9fba" class="uuid-6b9bbd1e-8f84-4e53-bb10-0ff75bd5afb8" d="m20,0h-11.5C3.8,0,0,3.8,0,8.5v11.5c0,4.7,3.8,8.5,8.5,8.5h11.5c4.7,0,8.5-3.8,8.5-8.5v-11.5c0-4.7-3.8-8.5-8.5-8.5Zm5.6,20c0,3.1-2.5,5.6-5.6,5.6h-11.5c-3.1,0-5.6-2.5-5.6-5.6h0v-11.5c0-3.1,2.5-5.6,5.6-5.6,0,0,0,0,0,0h11.5c3.1,0,5.6,2.5,5.6,5.6v11.5Z"/><path id="uuid-6748d455-79a3-41a1-84c1-2dad77ef801f" class="uuid-6b9bbd1e-8f84-4e53-bb10-0ff75bd5afb8" d="m14.3,6.9c-4.1,0-7.4,3.3-7.4,7.4s3.3,7.4,7.4,7.4,7.4-3.3,7.4-7.4h0c0-4.1-3.3-7.4-7.4-7.4Zm0,11.9c-2.5,0-4.5-2-4.5-4.5s2-4.5,4.5-4.5,4.5,2,4.5,4.5h0c0,2.5-2,4.5-4.5,4.5h0Zm7.4-13.6c1,0,1.8.8,1.8,1.8,0,1-.8,1.8-1.8,1.8-1,0-1.8-.8-1.8-1.8,0-.9.7-1.7,1.6-1.8,0,0,.1,0,.2,0h0Z"/></g></g></svg>