<?xml version="1.0" encoding="UTF-8"?><svg id="uuid-6a5acc7b-1efc-4f03-ad08-b0cba47c937c" xmlns="http://www.w3.org/2000/svg" viewBox="0 0 27.3 26.2"><defs><style>.uuid-d64093e1-e75a-4b2d-bb47-718745993ec4{fill-rule:evenodd;stroke-width:0px;}</style></defs><g id="uuid-af4d70b8-be0a-4c1e-8b69-f9c1efa04e3d"><g id="uuid-e9a234bf-9625-4121-86c6-0f3f16fd60d4"><path id="uuid-ecf0cc2d-5849-4b71-a8cf-7c6ad62983e3" class="uuid-d64093e1-e75a-4b2d-bb47-718745993ec4" d="m6.2,26.2V8.5H.3v17.6h5.9ZM3.3,6.1c1.7.1,3.2-1.1,3.3-2.8C6.7,1.6,5.4.1,3.7,0c-.1,0-.3,0-.4,0C1.6-.1.1,1.1,0,2.8s1.1,3.2,2.8,3.3c.1,0,.3,0,.4,0,0,0,0,0,0,0Zm6.2,20.1s0-16,0-17.6h5.9v2.6h0c1.1-1.9,3.1-3.1,5.3-3,3.9,0,6.8,2.5,6.8,7.9v10.1h-5.9v-9.4c0-2.4-.8-4-3-4-1.4,0-2.6.9-3,2.1-.2.5-.2.9-.2,1.4v9.9h-5.9Z"/></g></g></svg>