<?xml version="1.0" encoding="UTF-8"?><svg id="uuid-d0e4679b-e916-40da-88d1-314a3bcb3fd5" xmlns="http://www.w3.org/2000/svg" viewBox="0 0 29.3 29.3"><defs><style>.uuid-2d11f3a3-f1f7-4e42-b1cf-3052927f1835{fill-rule:evenodd;stroke-width:0px;}</style></defs><g id="uuid-3de263f1-c950-4844-a52b-72d29e60a1d2"><path id="uuid-aeb51a03-7c83-4a4d-b475-3f626eb47933" class="uuid-2d11f3a3-f1f7-4e42-b1cf-3052927f1835" d="m2.3,2.3c3-3,8-3,11,0,0,0,0,0,0,0l5.5,5.5c3,3,3,8,0,11h0c-.8.8-2,.8-2.8,0s-.8-2,0-2.8c1.5-1.5,1.5-4,0-5.5h0s-5.5-5.5-5.5-5.5c-1.5-1.5-4-1.5-5.5,0-1.5,1.5-1.5,4,0,5.5l1.4,1.4c.8.8.8,2,0,2.8s-2,.8-2.8,0l-1.4-1.4c-3-3-3-8,0-11h0Zm11,8.3c.8.8.8,2,0,2.8h0c-1.5,1.5-1.5,4,0,5.5h0s5.5,5.5,5.5,5.5c1.5,1.6,3.9,1.7,5.5.2s1.7-3.9.2-5.5c0,0-.1-.1-.2-.2l-1.4-1.4c-.8-.8-.8-2,0-2.8s2-.8,2.8,0l1.4,1.4c3,3.1,2.9,8-.1,11-3,3-7.9,3-10.9,0l-5.5-5.5c-3-3-3-8,0-11,0,0,0,0,0,0,.8-.8,2-.8,2.8,0,0,0,0,0,0,0Z"/></g></svg>